<svg xmlns="http://www.w3.org/2000/svg" viewBox="-8 -6 116 108"><defs><radialGradient id="denker-verloop" cx="35%" cy="30%" r="80%"><stop offset="0" stop-color="#FF8C70"/><stop offset=".55" stop-color="#FF6A4D"/><stop offset="1" stop-color="#EE5236"/></radialGradient></defs><g class="lijf"><g class="wave"><g class=""><ellipse cx="84" cy="34" rx="5.2" ry="10.5" transform="rotate(30 84 34)" fill="url(#denker-verloop)"/></g></g><path d="M46 18C68 18 80 32 80 55C80 78 66 94 43 94C20 94 6 80 6 57C6 33 22 18 46 18Z" fill="#FF6A4D"/><g class="face"><g class="pupils"><g class="eye"><ellipse cx="43" cy="49" rx="5" ry="7" fill="#2A1E17"/></g><g class="eye"><ellipse cx="61" cy="47" rx="5" ry="7" fill="#2A1E17"/></g></g><path d="M37 36 Q43 33 49 35" fill="none" stroke="#2A1E17" stroke-width="3.4" stroke-linecap="round"/><path d="M56 33 Q62 31 67 33" fill="none" stroke="#2A1E17" stroke-width="3.4" stroke-linecap="round"/><path d="M44 63 Q53 72 63 61" fill="none" stroke="#2A1E17" stroke-width="3.8" stroke-linecap="round"/></g></g><circle class="dot" cx="88" cy="12" r="5.5" fill="#2A1E17"/></svg>
