<svg xmlns="http://www.w3.org/2000/svg" viewBox="-8 -6 116 108"><defs><radialGradient id="denker-verloop" cx="35%" cy="30%" r="80%"><stop offset="0" stop-color="#FF8C70"/><stop offset=".55" stop-color="#FF6A4D"/><stop offset="1" stop-color="#EE5236"/></radialGradient></defs><ellipse class="shadow" cx="44" cy="99" rx="28" ry="3.5" fill="#2A1E17" opacity=".12"/><g class="lijf"><path d="M46 18C68 18 80 32 80 55C80 78 66 94 43 94C20 94 6 80 6 57C6 33 22 18 46 18Z" fill="url(#denker-verloop)"/><ellipse cx="29" cy="35" rx="10" ry="5.5" transform="rotate(-38 29 35)" fill="#fff" opacity=".32"/><ellipse cx="33" cy="63" rx="5.5" ry="3.4" fill="#FF3D6E" opacity=".28"/><ellipse cx="72" cy="59" rx="5.5" ry="3.4" fill="#FF3D6E" opacity=".28"/><g class="face"><g class="pupils"><g class="eye"><ellipse cx="43" cy="49" rx="5" ry="7" fill="#2A1E17"/><circle cx="44.6" cy="46.4" r="1.8" fill="#fff"/></g><g class="eye"><ellipse cx="61" cy="47" rx="5" ry="7" fill="#2A1E17"/><circle cx="62.6" cy="44.4" r="1.8" fill="#fff"/></g></g><path d="M37 36 Q43 33 49 35" fill="none" stroke="#2A1E17" stroke-width="3.4" stroke-linecap="round"/><path d="M56 33 Q62 31 67 33" fill="none" stroke="#2A1E17" stroke-width="3.4" stroke-linecap="round"/><path d="M44 64 Q53 72 63 62" fill="none" stroke="#2A1E17" stroke-width="3.8" stroke-linecap="round"/></g></g><circle class="dot" cx="86" cy="16" r="6.5" fill="#2A1E17"/></svg>
