<svg xmlns="http://www.w3.org/2000/svg" viewBox="0 0 100 100"><defs><clipPath id="rond"><circle cx="50" cy="50" r="50"></circle></clipPath></defs><circle cx="50" cy="50" r="50" fill="#FDE0EE"></circle><g clip-path="url(#rond)"><path d="M14 100L28 72Q50 64 72 72L86 100Z" fill="#5FE3C8"></path><path d="M24 100Q24 74 50 72Q76 74 76 100Z" fill="#2E8BF2"></path><circle cx="50" cy="88" r="8.5" fill="#fff"></circle><path d="M50 81L56 88L50 95L44 88Z" fill="#5FE3C8"></path><rect x="45" y="62" width="10" height="10" fill="#A86B45"></rect><circle cx="50" cy="48" r="20" fill="#A86B45"></circle><circle cx="32" cy="38" r="8" fill="#8FA3B5"></circle><circle cx="38" cy="29" r="8" fill="#8FA3B5"></circle><circle cx="47" cy="25" r="8" fill="#8FA3B5"></circle><circle cx="56" cy="26" r="8" fill="#8FA3B5"></circle><circle cx="64" cy="30" r="8" fill="#8FA3B5"></circle><circle cx="69" cy="39" r="8" fill="#8FA3B5"></circle><rect x="31" y="42" width="38" height="12" rx="6" fill="#2E8BF2"></rect><ellipse cx="42" cy="48" rx="4.6" ry="4.6" fill="#fff"></ellipse><ellipse cx="58" cy="48" rx="4.6" ry="4.6" fill="#fff"></ellipse><ellipse cx="42" cy="48.5" rx="2.2" ry="3.2" transform="rotate(-12 42 48.5)" fill="#2A1E17"></ellipse><ellipse cx="58" cy="48.5" rx="2.2" ry="3.2" transform="rotate(-12 58 48.5)" fill="#2A1E17"></ellipse><path d="M45 58Q50 62 55 58" stroke="#2A1E17" stroke-width="3" fill="none" stroke-linecap="round"></path></g></svg>
