<svg xmlns="http://www.w3.org/2000/svg" viewBox="0 0 100 100"><defs><clipPath id="rond"><circle cx="50" cy="50" r="50"></circle></clipPath></defs><circle cx="50" cy="50" r="50" fill="#E3E9EF"></circle><g clip-path="url(#rond)"><path d="M14 100L28 72Q50 64 72 72L86 100Z" fill="#6A7D8E"></path><path d="M24 100Q24 74 50 72Q76 74 76 100Z" fill="#2A1E17"></path><circle cx="50" cy="88" r="8.5" fill="#fff"></circle><circle cx="50" cy="88" r="4" fill="#6A7D8E"></circle><path d="M24 74Q22 22 50 20Q78 22 76 74Q64 68 50 68Q36 68 24 74Z" fill="#6A7D8E"></path><circle cx="50" cy="50" r="18" fill="#D9A07A"></circle><rect x="32" y="43" width="36" height="12" rx="6" fill="#2A1E17"></rect><circle cx="42" cy="49" r="4.6" fill="#fff"></circle><circle cx="58" cy="49" r="4.6" fill="#fff"></circle><ellipse cx="42" cy="49.5" rx="2.2" ry="3.2" transform="rotate(-12 42 49.5)" fill="#2A1E17"></ellipse><ellipse cx="58" cy="49.5" rx="2.2" ry="3.2" transform="rotate(-12 58 49.5)" fill="#2A1E17"></ellipse><path d="M45 59Q50 62 55 59" stroke="#2A1E17" stroke-width="3" fill="none" stroke-linecap="round"></path></g></svg>
