<svg xmlns="http://www.w3.org/2000/svg" viewBox="-12 -10 124 116"><defs><radialGradient id="denker-verloop" cx="38%" cy="30%" r="80%"><stop offset="0" stop-color="#FF8C70"/><stop offset=".55" stop-color="#FF6A4D"/><stop offset="1" stop-color="#EE5236"/></radialGradient></defs><g class="lijf"><path d="M50 17C73 17 87 33 87 56C87 79 71 94 50 94C29 94 13 79 13 56C13 33 27 17 50 17Z" fill="url(#denker-verloop)"/><g class="face"><g class="eye"><clipPath id="denker-oog-39"><ellipse cx="39" cy="50" rx="9" ry="10.4"/></clipPath><ellipse cx="39" cy="50" rx="9" ry="10.4" fill="#fff"/><g clip-path="url(#denker-oog-39)"><g class="pupil"><circle cx="39" cy="51" r="7.8975" fill="#1B2A5E"/></g><path d="M27 36.6L51 36.6L51 46.8L27 46.8Z" fill="#F4603F"/><path d="M27 46.8L51 46.8" fill="none" stroke="#1B2A5E" stroke-width="2.4" stroke-linecap="round"/></g><ellipse cx="39" cy="50" rx="9" ry="10.4" fill="none" stroke="#1B2A5E" stroke-width="3"/></g><g class="eye"><clipPath id="denker-oog-61"><ellipse cx="61" cy="50" rx="9" ry="10.4"/></clipPath><ellipse cx="61" cy="50" rx="9" ry="10.4" fill="#fff"/><g clip-path="url(#denker-oog-61)"><g class="pupil"><circle cx="61" cy="51" r="7.8975" fill="#1B2A5E"/></g><path d="M49 36.6L73 36.6L73 46.8L49 46.8Z" fill="#F4603F"/><path d="M49 46.8L73 46.8" fill="none" stroke="#1B2A5E" stroke-width="2.4" stroke-linecap="round"/></g><ellipse cx="61" cy="50" rx="9" ry="10.4" fill="none" stroke="#1B2A5E" stroke-width="3"/></g><path d="M43 64.5 Q50 70 57 64.5" fill="none" stroke="#1B2A5E" stroke-width="3.96" stroke-linecap="round" stroke-linejoin="round"/></g><g class="thumb"><g><ellipse cx="86" cy="64" rx="5.4" ry="10.5" transform="rotate(16 86 64)" fill="url(#denker-verloop)" stroke="#D94A30" stroke-width="1.2"/></g><ellipse cx="88.6" cy="51" rx="3.4" ry="5.6" fill="url(#denker-verloop)" stroke="#D94A30" stroke-width="1.2"/></g></g></svg>
